<svg xmlns="http://www.w3.org/2000/svg" viewBox="0 0 64 64">
  <rect width="64" height="64" rx="14" fill="#f3dfb8"/>
  <path d="M18 18c4-5 24-5 28 0" fill="none" stroke="#6d4b2f" stroke-width="5" stroke-linecap="round"/>
  <path d="M22 17 48 8" fill="none" stroke="#6d4b2f" stroke-width="4" stroke-linecap="round"/>
  <rect x="8" y="18" width="48" height="36" rx="8" fill="#e85d2a"/>
  <rect x="12" y="22" width="40" height="28" rx="5" fill="#ffd777"/>
  <rect x="17" y="26" width="30" height="10" rx="2" fill="#fff3c7"/>
  <path d="M20 31h24" stroke="#6d4b2f" stroke-width="2" stroke-linecap="round"/>
  <path d="M23 28v6M29 28v6M35 28v6M41 28v6" stroke="#6d4b2f" stroke-width="1.8" stroke-linecap="round"/>
  <rect x="22" y="39" width="20" height="5" rx="2.5" fill="#6d4b2f"/>
  <circle cx="18" cy="45" r="6" fill="#3b2a20"/>
  <circle cx="18" cy="45" r="2.3" fill="#fff3c7"/>
  <circle cx="46" cy="45" r="6" fill="#3b2a20"/>
  <circle cx="46" cy="45" r="2.3" fill="#fff3c7"/>
  <path d="M18 54h28" stroke="#3b2a20" stroke-width="4" stroke-linecap="round"/>
</svg>
